HIERARCHY
ROOT Hips
{
	OFFSET 0.000000 0.000000 0.000000 
	CHANNELS 6 Xposition Yposition Zposition Zrotation Xrotation Yrotation
	JOINT Spine
	{
		OFFSET -0.000000 8.061080 0.000000 
		CHANNELS 3 Zrotation Xrotation Yrotation
		JOINT Spine1
		{
			OFFSET -0.000000 20.532677 0.000000 
			CHANNELS 3 Zrotation Xrotation Yrotation
			JOINT Neck
			{
				OFFSET -0.000000 22.498795 0.000000 
				CHANNELS 3 Zrotation Xrotation Yrotation
				JOINT Head
				{
					OFFSET -0.000000 15.237408 1.966117 
					CHANNELS 3 Zrotation Xrotation Yrotation
					End Site
					{
						OFFSET -0.000000 19.661171 0.000000 
					}
				}
			}
			JOINT LeftShoulder
			{
				OFFSET 3.894675 16.042269 -0.398189 
				CHANNELS 3 Zrotation Xrotation Yrotation
				JOINT LeftArm
				{
					OFFSET 19.709621 0.000000 0.000000 
					CHANNELS 3 Zrotation Xrotation Yrotation
					JOINT LeftForeArm
					{
						OFFSET 25.566900 0.000000 0.000000 
						CHANNELS 3 Zrotation Xrotation Yrotation
						JOINT LeftHand
						{
							OFFSET 25.401896 0.000000 0.000000 
							CHANNELS 3 Zrotation Xrotation Yrotation
							End Site
							{
								OFFSET 14.745877 0.000000 0.000000 
							}
						}
					}
				}
			}
			JOINT RightShoulder
			{
				OFFSET -3.930777 16.042269 -0.398189 
				CHANNELS 3 Zrotation Xrotation Yrotation
				JOINT RightArm
				{
					OFFSET -19.709621 0.000000 0.000000 
					CHANNELS 3 Zrotation Xrotation Yrotation
					JOINT RightForeArm
					{
						OFFSET -25.566900 0.000000 0.000000 
						CHANNELS 3 Zrotation Xrotation Yrotation
						JOINT RightHand
						{
							OFFSET -25.401896 0.000000 0.000000 
							CHANNELS 3 Zrotation Xrotation Yrotation
							End Site
							{
								OFFSET -14.745877 0.000000 0.000000 
							}
						}
					}
				}
			}
		}
	}
	JOINT LeftUpLeg
	{
		OFFSET 9.830585 0.000000 0.000000 
		CHANNELS 3 Zrotation Xrotation Yrotation
		JOINT LeftLeg
		{
			OFFSET -0.000000 -46.474842 0.000000 
			CHANNELS 3 Zrotation Xrotation Yrotation
			JOINT LeftFoot
			{
				OFFSET -0.000000 -30.290520 0.000000 
				CHANNELS 3 Zrotation Xrotation Yrotation
				JOINT LeftToeBase
				{
					OFFSET -0.000000 -6.389880 14.745877 
					CHANNELS 3 Zrotation Xrotation Yrotation
					End Site
					{
						OFFSET -0.000000 0.000000 3.932234 
					}
				}
			}
		}
	}
	JOINT RightUpLeg
	{
		OFFSET -9.830585 0.000000 0.000000 
		CHANNELS 3 Zrotation Xrotation Yrotation
		JOINT RightLeg
		{
			OFFSET -0.000000 -46.474842 0.000000 
			CHANNELS 3 Zrotation Xrotation Yrotation
			JOINT RightFoot
			{
				OFFSET -0.000000 -30.290520 0.000000 
				CHANNELS 3 Zrotation Xrotation Yrotation
				JOINT RightToeBase
				{
					OFFSET -0.000000 -6.389880 14.745877 
					CHANNELS 3 Zrotation Xrotation Yrotation
					End Site
					{
						OFFSET -0.000000 0.000000 3.932234 
					}
				}
			}
		}
	}
}
MOTION
Frames: 14
Frame Time: 0.010000
0.000000 84.363991 0.000000 -2.886927 3.374199 4.316265 2.837039 -8.356558 -0.159171 1.301214 0.408101 -0.130650 3.110022 10.665852 0.856852 -0.239997 13.210347 1.648783 2.136431 9.014359 -1.367271 -67.876160 31.533720 -26.254698 -14.094852 1.043428 -3.901037 2.585961 0.732679 7.592546 -8.059738 8.901209 -9.957801 51.683701 55.889130 41.743832 6.886008 -10.777320 7.654884 -6.449785 -11.270609 0.733347 6.578083 3.735478 6.947955 2.084327 -6.980472 -0.354292 0.076698 3.163915 -0.571150 0.000000 0.000000 0.000000 -5.893895 -1.543299 4.806249 0.000000 0.000000 0.000000 0.000000 0.000000 0.000000 0.000000 0.000000 0.000000 
0.008708 84.365173 0.001323 -2.838730 3.358243 4.321593 2.716567 -8.225534 -0.215300 1.457431 0.221245 -0.143338 2.979451 10.756659 0.906203 -0.213137 13.187565 1.665972 1.949441 8.967635 -1.410715 -67.875343 31.711351 -26.036257 -13.901593 0.664616 -3.717818 2.388208 0.354454 6.848065 -8.110773 8.958767 -9.932800 51.520912 55.968636 41.859196 6.879841 -10.829262 7.647053 -6.474999 -11.320844 0.716864 6.522589 3.760781 6.924538 2.101796 -6.955800 -0.346776 0.059548 3.096853 -0.634594 0.000000 0.000000 0.000000 -5.952407 -1.521022 4.795777 0.000000 0.000000 0.000000 0.000000 0.000000 0.000000 0.000000 0.000000 0.000000 
0.005239 84.366821 0.002806 -2.905417 3.381575 4.303767 2.834464 -8.338974 -0.156252 1.337847 0.385099 -0.129305 3.038538 10.640115 0.906362 -0.155846 13.208412 1.662707 2.066480 9.255799 -1.391185 -67.717049 31.419485 -26.476845 -14.084684 1.033470 -3.901582 2.602390 0.723589 7.571236 -8.057542 8.906193 -9.948606 51.726574 55.866261 41.683823 6.889281 -10.789751 7.663332 -6.516965 -11.282120 0.696799 6.615507 3.700631 6.944311 2.108232 -6.988577 -0.330604 0.390053 3.275286 -1.304999 0.000000 0.000000 0.000000 -5.863726 -1.504853 4.783115 0.000000 0.000000 0.000000 0.000000 0.000000 0.000000 0.000000 0.000000 0.000000 
0.002418 84.365326 0.004750 -2.899311 3.405235 4.302975 2.831446 -8.411525 -0.158268 1.308789 0.492977 -0.131728 3.159125 10.657776 0.841911 -0.333012 13.101351 1.666412 2.100198 9.213559 -1.400945 -67.732811 31.404655 -26.469883 -14.073994 1.033336 -3.913549 2.589225 0.721554 7.579726 -7.998774 8.914155 -9.956795 51.353348 56.047787 42.025681 6.804534 -10.960760 7.647769 -6.424686 -11.443175 0.649333 6.592000 3.714400 6.957188 2.092232 -6.928329 -0.341861 -0.007850 3.034539 -0.610462 0.000000 0.000000 0.000000 -5.879688 -1.576182 4.813426 0.000000 0.000000 0.000000 0.000000 0.000000 0.000000 0.000000 0.000000 0.000000 
0.010196 84.363457 0.013299 -2.843058 3.372926 4.311932 2.841516 -8.295510 -0.197507 1.192550 0.401995 -0.142612 3.160901 10.622596 0.899119 -0.282072 13.119069 1.712791 2.162410 8.886847 -1.363393 -67.906204 31.741615 -26.097271 -13.945692 0.781579 -3.657571 2.463203 0.478588 6.710029 -8.000305 8.903534 -9.924565 51.419949 56.078365 42.009682 6.806907 -10.953751 7.611225 -6.561900 -11.439702 0.733743 6.530139 3.748625 6.922601 2.098264 -6.925963 -0.308441 0.028121 3.063046 -0.652641 0.000000 0.000000 0.000000 -5.951157 -1.535807 4.804747 0.000000 0.000000 0.000000 0.000000 0.000000 0.000000 0.000000 0.000000 0.000000 
0.004968 84.361702 0.020308 -2.889675 3.392867 4.305080 2.823083 -8.331486 -0.172571 1.315030 0.408977 -0.134515 3.104906 10.663531 0.897813 -0.280953 13.055553 1.699401 2.135220 9.044563 -1.342002 -67.854027 31.528028 -26.289423 -14.107919 1.037604 -3.907021 2.542298 0.721684 7.542058 -8.049681 8.924813 -9.962007 51.378986 56.069336 42.043499 6.829041 -10.967666 7.610401 -6.619141 -11.455026 0.727819 6.587471 3.739273 6.947581 2.088280 -6.938239 -0.342769 0.010746 3.042588 -0.649463 0.000000 0.000000 0.000000 -5.898035 -1.554008 4.820614 0.000000 0.000000 0.000000 0.000000 0.000000 0.000000 0.000000 0.000000 0.000000 
0.014693 84.363983 0.023111 -2.846510 3.367161 4.300426 2.788481 -8.360875 -0.168534 1.263921 0.525964 -0.133782 3.215318 10.670838 0.910713 -0.351161 12.928848 1.754441 2.153129 8.871339 -1.493686 -67.941772 31.664835 -26.075989 -13.921715 0.782861 -3.639884 2.482745 0.483320 6.683908 -7.962711 8.945079 -9.978749 51.198814 56.050056 42.195492 6.862780 -10.970363 7.628542 -6.722711 -11.464643 0.780043 6.542469 3.783204 6.923630 2.114429 -6.906353 -0.322434 -0.365999 2.874037 -0.579191 0.000000 0.000000 0.000000 -5.929606 -1.497065 4.741759 0.000000 0.000000 0.000000 0.000000 0.000000 0.000000 0.000000 0.000000 0.000000 
0.007779 84.360695 0.027732 -2.896523 3.407449 4.297903 2.799273 -8.311348 -0.183621 1.371416 0.381887 -0.137398 3.070362 10.654627 0.921262 -0.290715 13.042984 1.717898 2.016737 8.929644 -1.483154 -67.886955 31.609970 -26.011999 -14.001752 0.978395 -3.989731 2.542935 0.655641 7.529610 -8.072694 8.908211 -9.932717 51.391907 56.085468 42.006638 6.821714 -10.971189 7.618218 -6.640260 -11.458536 0.725786 6.593526 3.732611 6.944294 2.080700 -6.941216 -0.349675 -0.007207 3.037833 -0.608973 0.000000 0.000000 0.000000 -5.893826 -1.562742 4.806643 0.000000 0.000000 0.000000 0.000000 0.000000 0.000000 0.000000 0.000000 0.000000 
0.015059 84.362381 0.029883 -2.849807 3.406600 4.296079 2.836945 -8.291101 -0.196698 1.191943 0.399041 -0.142105 3.178487 10.592066 0.927001 -0.319522 13.065233 1.753591 2.175643 8.896850 -1.361057 -67.879387 31.769220 -26.133141 -13.956157 0.774457 -3.636357 2.413762 0.470510 6.686956 -7.989150 8.874946 -9.907386 51.389950 56.116020 42.015919 6.802135 -10.974299 7.616306 -6.623942 -11.459840 0.720356 6.536722 3.733948 6.922307 2.087765 -6.932127 -0.303642 0.040435 3.053960 -0.649172 0.000000 0.000000 0.000000 -5.948493 -1.558325 4.779610 0.000000 0.000000 0.000000 0.000000 0.000000 0.000000 0.000000 0.000000 0.000000 
0.011129 84.360985 0.038412 -2.898715 3.424456 4.287363 2.797707 -8.305300 -0.178814 1.370351 0.368170 -0.135622 3.076977 10.643369 0.928516 -0.311349 13.035516 1.731483 2.020750 8.918211 -1.484677 -67.882309 31.650965 -26.012312 -13.995693 0.960936 -3.968553 2.565841 0.642621 7.533035 -8.067695 8.910805 -9.942044 51.329296 56.110981 42.066990 6.821387 -10.970213 7.616549 -6.637189 -11.457434 0.725940 6.591983 3.725693 6.949099 2.082474 -6.937297 -0.331630 0.016858 3.028405 -0.637392 0.000000 0.000000 0.000000 -5.894474 -1.568358 4.803674 0.000000 0.000000 0.000000 0.000000 0.000000 0.000000 0.000000 0.000000 0.000000 
0.025346 84.359001 0.043888 -2.878366 3.438451 4.253143 2.903237 -8.407498 -0.160720 1.126263 0.540752 -0.133857 3.283107 10.612096 0.900305 -0.437187 12.970168 1.778130 2.196348 8.852836 -1.406699 -67.880569 31.724480 -26.123701 -13.958944 0.767166 -3.612774 2.443791 0.468233 6.708911 -7.909710 8.877603 -9.898843 51.330215 56.059601 42.048599 6.786151 -10.972237 7.643616 -6.516107 -11.453040 0.637569 6.552032 3.732280 6.948002 2.094528 -6.946664 -0.292199 -0.003115 3.022434 -0.596387 0.000000 0.000000 0.000000 -5.921489 -1.583998 4.777502 0.000000 0.000000 0.000000 0.000000 0.000000 0.000000 0.000000 0.000000 0.000000 
0.015368 84.363770 0.049458 -2.908739 3.429610 4.273060 2.747908 -8.407179 -0.131572 1.448674 0.523252 -0.121417 3.120256 10.679532 0.930545 -0.353796 12.886602 1.754074 2.004631 8.872169 -1.648916 -67.945053 31.509474 -25.951904 -13.985682 0.990855 -3.940566 2.568324 0.677268 7.561408 -8.033638 8.936187 -10.013275 51.096947 56.098427 42.262970 6.871532 -10.970385 7.639748 -6.795894 -11.464759 0.751784 6.603609 3.752780 6.952714 2.107342 -6.925740 -0.322731 -0.389753 2.851242 -0.562299 0.000000 0.000000 0.000000 -5.861560 -1.541628 4.755390 0.000000 0.000000 0.000000 0.000000 0.000000 0.000000 0.000000 0.000000 0.000000 
0.033604 84.361526 0.054813 -2.883206 3.447897 4.239900 2.883188 -8.330609 -0.159049 1.180617 0.406771 -0.131120 3.129290 10.556751 0.974474 -0.246057 13.104263 1.772926 2.161375 8.903727 -1.395939 -67.902115 31.696791 -26.103693 -13.961144 0.791612 -3.591008 2.468283 0.496678 6.710253 -7.977576 8.878277 -9.915605 51.355869 56.094051 42.042019 6.819445 -10.963128 7.628912 -6.575023 -11.446958 0.661874 6.560685 3.702748 6.947258 2.116902 -7.013379 -0.273463 0.415957 3.242460 -1.291529 0.000000 0.000000 0.000000 -5.914933 -1.538458 4.761487 0.000000 0.000000 0.000000 0.000000 0.000000 0.000000 0.000000 0.000000 0.000000 
0.017656 84.365005 0.054134 -2.915193 3.480198 4.261765 2.791644 -8.403061 -0.168168 1.376454 0.474444 -0.133732 3.153110 10.661148 0.921321 -0.418555 12.933319 1.767179 2.047078 9.118381 -1.381359 -67.736542 31.445314 -26.389587 -14.099787 1.051130 -3.845032 2.582988 0.746554 7.576039 -8.003721 8.904974 -9.933290 51.271175 56.058964 42.087254 6.796992 -10.972827 7.658092 -6.477987 -11.454208 0.623885 6.608995 3.704595 6.959147 2.109794 -6.924811 -0.316750 -0.459050 2.842920 -0.578483 0.000000 0.000000 0.000000 -5.873917 -1.612377 4.809788 0.000000 0.000000 0.000000 0.000000 0.000000 0.000000 0.000000 0.000000 0.000000 
